<?xml version="1.0" encoding="UTF-8" standalone="no"?>
<!DOCTYPE svg PUBLIC "-//W3C//DTD SVG 1.1//EN"
 "http://www.w3.org/Graphics/SVG/1.1/DTD/svg11.dtd">
<!-- Generated by graphviz version 2.38.0 (20140413.2041)
 -->
<!-- Title: G Pages: 1 -->
<svg width="206pt" height="188pt"
 viewBox="0.00 0.00 206.00 188.00" xmlns="http://www.w3.org/2000/svg" xmlns:xlink="http://www.w3.org/1999/xlink">
<g id="graph0" class="graph" transform="scale(1 1) rotate(0) translate(4 184)">
<title>G</title>
<polygon fill="white" stroke="none" points="-4,4 -4,-184 202,-184 202,4 -4,4"/>
<!-- 0 -->
<g id="node1" class="node"><title>0</title>
<ellipse fill="none" stroke="black" cx="27" cy="-162" rx="27" ry="18"/>
<text text-anchor="middle" x="27" y="-158.3" font-family="Times New Roman,serif" font-size="14.00" fill="#0000ff">0</text>
</g>
<!-- 1 -->
<g id="node2" class="node"><title>1</title>
<ellipse fill="none" stroke="black" cx="99" cy="-162" rx="27" ry="18"/>
<text text-anchor="middle" x="99" y="-158.3" font-family="Times New Roman,serif" font-size="14.00" fill="#ff0000">1</text>
</g>
<!-- 0&#45;&#45;1 -->
<g id="edge2" class="edge"><title>0&#45;&#45;1</title>
<path fill="none" stroke="#ff0000" d="M54.2201,-162C59.9546,-162 66.0055,-162 71.7414,-162"/>
<text text-anchor="middle" x="58.9808" y="-165.4" font-family="Courier New" font-size="12.00">0</text>
</g>
<!-- 7 -->
<g id="node8" class="node"><title>7</title>
<ellipse fill="none" stroke="black" cx="27" cy="-90" rx="27" ry="18"/>
<text text-anchor="middle" x="27" y="-86.3" font-family="Times New Roman,serif" font-size="14.00" fill="#0000ff">7</text>
</g>
<!-- 0&#45;&#45;7 -->
<g id="edge11" class="edge"><title>0&#45;&#45;7</title>
<path fill="none" stroke="#000000" d="M27,-143.831C27,-133 27,-119.288 27,-108.413"/>
<text text-anchor="middle" x="23" y="-129.522" font-family="Courier New" font-size="12.00">_</text>
</g>
<!-- 2 -->
<g id="node3" class="node"><title>2</title>
<ellipse fill="none" stroke="black" cx="171" cy="-162" rx="27" ry="18"/>
<text text-anchor="middle" x="171" y="-158.3" font-family="Times New Roman,serif" font-size="14.00" fill="#0000ff">2</text>
</g>
<!-- 1&#45;&#45;2 -->
<g id="edge12" class="edge"><title>1&#45;&#45;2</title>
<path fill="none" stroke="#00ff00" d="M126.22,-162C131.955,-162 138.006,-162 143.741,-162"/>
<text text-anchor="middle" x="130.981" y="-165.4" font-family="Courier New" font-size="12.00">1</text>
</g>
<!-- 3 -->
<g id="node4" class="node"><title>3</title>
<ellipse fill="none" stroke="black" cx="171" cy="-90" rx="27" ry="18"/>
<text text-anchor="middle" x="171" y="-86.3" font-family="Times New Roman,serif" font-size="14.00" fill="#0000ff">3</text>
</g>
<!-- 1&#45;&#45;3 -->
<g id="edge4" class="edge"><title>1&#45;&#45;3</title>
<path fill="none" stroke="#000000" d="M114.269,-146.731C126.488,-134.512 143.54,-117.46 155.753,-105.247"/>
<text text-anchor="middle" x="131.011" y="-129.389" font-family="Courier New" font-size="12.00">_</text>
</g>
<!-- 1&#45;&#45;7 -->
<g id="edge10" class="edge"><title>1&#45;&#45;7</title>
<path fill="none" stroke="#000000" d="M83.7307,-146.731C71.512,-134.512 54.4602,-117.46 42.2473,-105.247"/>
<text text-anchor="middle" x="58.989" y="-129.389" font-family="Courier New" font-size="12.00">_</text>
</g>
<!-- 2&#45;&#45;3 -->
<g id="edge3" class="edge"><title>2&#45;&#45;3</title>
<path fill="none" stroke="#000000" d="M171,-143.831C171,-133 171,-119.288 171,-108.413"/>
<text text-anchor="middle" x="167" y="-129.522" font-family="Courier New" font-size="12.00">_</text>
</g>
<!-- 4 -->
<g id="node5" class="node"><title>4</title>
<ellipse fill="none" stroke="black" cx="171" cy="-18" rx="27" ry="18"/>
<text text-anchor="middle" x="171" y="-14.3" font-family="Times New Roman,serif" font-size="14.00" fill="#0000ff">4</text>
</g>
<!-- 3&#45;&#45;4 -->
<g id="edge1" class="edge"><title>3&#45;&#45;4</title>
<path fill="none" stroke="#000000" d="M171,-71.8314C171,-61 171,-47.2876 171,-36.4133"/>
<text text-anchor="middle" x="167" y="-57.5223" font-family="Courier New" font-size="12.00">_</text>
</g>
<!-- 5 -->
<g id="node6" class="node"><title>5</title>
<ellipse fill="none" stroke="black" cx="99" cy="-18" rx="27" ry="18"/>
<text text-anchor="middle" x="99" y="-14.3" font-family="Times New Roman,serif" font-size="14.00" fill="#ff0000">5</text>
</g>
<!-- 3&#45;&#45;5 -->
<g id="edge7" class="edge"><title>3&#45;&#45;5</title>
<path fill="none" stroke="#000000" d="M155.731,-74.7307C143.512,-62.512 126.46,-45.4602 114.247,-33.2473"/>
<text text-anchor="middle" x="130.989" y="-57.389" font-family="Courier New" font-size="12.00">_</text>
</g>
<!-- 4&#45;&#45;5 -->
<g id="edge6" class="edge"><title>4&#45;&#45;5</title>
<path fill="none" stroke="#000000" d="M143.78,-18C138.045,-18 131.994,-18 126.259,-18"/>
<text text-anchor="middle" x="131.019" y="-21.4" font-family="Courier New" font-size="12.00">_</text>
</g>
<!-- 6 -->
<g id="node7" class="node"><title>6</title>
<ellipse fill="none" stroke="black" cx="27" cy="-18" rx="27" ry="18"/>
<text text-anchor="middle" x="27" y="-14.3" font-family="Times New Roman,serif" font-size="14.00" fill="#0000ff">6</text>
</g>
<!-- 5&#45;&#45;6 -->
<g id="edge5" class="edge"><title>5&#45;&#45;6</title>
<path fill="none" stroke="#000000" d="M71.7799,-18C66.0454,-18 59.9945,-18 54.2586,-18"/>
<text text-anchor="middle" x="59.0192" y="-21.4" font-family="Courier New" font-size="12.00">_</text>
</g>
<!-- 5&#45;&#45;7 -->
<g id="edge9" class="edge"><title>5&#45;&#45;7</title>
<path fill="none" stroke="#000000" d="M83.7307,-33.2693C71.512,-45.488 54.4602,-62.5398 42.2473,-74.7527"/>
<text text-anchor="middle" x="58.989" y="-57.411" font-family="Courier New" font-size="12.00">_</text>
</g>
<!-- 6&#45;&#45;7 -->
<g id="edge8" class="edge"><title>6&#45;&#45;7</title>
<path fill="none" stroke="#000000" d="M27,-36.1686C27,-47 27,-60.7124 27,-71.5867"/>
<text text-anchor="middle" x="23" y="-57.2777" font-family="Courier New" font-size="12.00">_</text>
</g>
</g>
</svg>
